<?xml version="1.0" encoding="UTF-8" standalone="no"?>
<!DOCTYPE svg PUBLIC "-//W3C//DTD SVG 1.1//EN" "http://www.w3.org/Graphics/SVG/1.1/DTD/svg11.dtd">
<svg version="1.1" xmlns="http://www.w3.org/2000/svg" xmlns:xlink="http://www.w3.org/1999/xlink" preserveAspectRatio="xMidYMid meet" viewBox="92.915127561856 278.52396696134383 179.963097379296 178.78228530627257" width="179.96" height="178.78"><defs><path d="M149.02 293.04L149.11 293.05L149.2 293.06L149.29 293.08L149.38 293.11L149.46 293.14L149.54 293.17L149.62 293.2L149.69 293.25L149.77 293.29L149.84 293.34L149.91 293.39L149.97 293.44L150.04 293.5L150.1 293.57L150.16 293.63L150.22 293.7L150.28 293.77L150.34 293.84L150.39 293.92L150.45 294L150.5 294.08L150.55 294.17L150.6 294.26L150.65 294.35L150.7 294.44L150.74 294.54L150.79 294.63L150.83 294.73L150.88 294.83L150.92 294.94L150.96 295.04L151.01 295.15L151.05 295.26L151.09 295.37L151.13 295.48L151.17 295.59L151.21 295.7L151.25 295.82L153.36 303.07L154.02 303.26L155.48 303.73L156.91 304.26L158.31 304.84L159.68 305.46L159.8 305.52L166.88 301.74L167 301.69L167.12 301.64L167.23 301.58L167.35 301.53L167.46 301.48L167.58 301.43L167.69 301.38L167.8 301.34L167.91 301.29L168.02 301.25L168.13 301.21L168.23 301.17L168.34 301.13L168.44 301.1L168.55 301.07L168.65 301.04L168.75 301.01L168.85 300.98L168.95 300.96L169.05 300.94L169.15 300.93L169.24 300.92L169.34 300.91L169.43 300.9L169.53 300.9L169.62 300.9L169.71 300.9L169.79 300.91L169.88 300.92L169.97 300.94L170.05 300.96L170.14 300.98L170.22 301.01L170.3 301.05L170.38 301.09L170.46 301.13L170.53 301.18L170.61 301.23L170.68 301.29L170.75 301.35L181.06 310.83L181.13 310.9L181.2 310.97L181.25 311.03L181.31 311.11L181.36 311.18L181.4 311.25L181.44 311.33L181.47 311.41L181.5 311.49L181.53 311.57L181.55 311.65L181.56 311.73L181.57 311.81L181.58 311.9L181.59 311.98L181.59 312.07L181.58 312.16L181.57 312.25L181.56 312.34L181.55 312.43L181.53 312.52L181.51 312.62L181.48 312.71L181.45 312.81L181.42 312.9L181.39 313L181.35 313.09L181.31 313.19L181.27 313.29L181.22 313.39L181.17 313.49L181.12 313.58L181.07 313.68L181.01 313.78L180.95 313.88L180.89 313.98L180.83 314.08L180.77 314.18L180.7 314.29L180.64 314.39L176.54 320.89L176.62 321.03L177.3 322.3L177.93 323.59L178.5 324.9L179.02 326.24L179.22 326.85L187.11 328.78L187.23 328.81L187.36 328.84L187.48 328.87L187.6 328.9L187.72 328.93L187.84 328.96L187.95 329L188.07 329.03L188.18 329.07L188.29 329.11L188.4 329.15L188.5 329.19L188.61 329.23L188.71 329.28L188.81 329.32L188.9 329.37L189 329.42L189.09 329.47L189.17 329.52L189.26 329.57L189.34 329.63L189.42 329.68L189.49 329.74L189.56 329.8L189.63 329.86L189.69 329.93L189.75 329.99L189.81 330.06L189.86 330.13L189.91 330.2L189.95 330.27L189.99 330.35L190.03 330.42L190.06 330.5L190.09 330.58L190.11 330.66L190.13 330.75L190.14 330.84L190.15 330.93L190.15 331.02L190.15 344.43L190.15 344.52L190.14 344.61L190.13 344.69L190.11 344.77L190.09 344.86L190.06 344.93L190.03 345.01L189.99 345.08L189.95 345.16L189.91 345.22L189.86 345.29L189.81 345.36L189.75 345.42L189.69 345.48L189.63 345.54L189.56 345.6L189.49 345.66L189.42 345.71L189.34 345.77L189.26 345.82L189.17 345.87L189.09 345.92L189 345.97L188.9 346.01L188.81 346.06L188.71 346.1L188.61 346.15L188.5 346.19L188.4 346.23L188.29 346.27L188.18 346.31L188.07 346.35L187.95 346.39L187.84 346.43L187.72 346.47L187.6 346.51L187.48 346.55L187.36 346.59L187.23 346.62L187.11 346.66L179.22 348.59L179.02 349.2L178.5 350.54L177.93 351.86L177.3 353.15L176.62 354.41L176.55 354.54L180.64 361.03L180.7 361.13L180.77 361.23L180.83 361.33L180.89 361.43L180.95 361.53L181.01 361.63L181.07 361.73L181.12 361.83L181.17 361.93L181.22 362.03L181.27 362.13L181.31 362.23L181.35 362.32L181.39 362.42L181.42 362.51L181.45 362.61L181.48 362.7L181.51 362.8L181.53 362.89L181.55 362.98L181.56 363.08L181.57 363.17L181.58 363.26L181.59 363.34L181.59 363.43L181.58 363.52L181.57 363.6L181.56 363.69L181.55 363.77L181.53 363.85L181.5 363.93L181.47 364.01L181.44 364.09L181.4 364.16L181.36 364.24L181.31 364.31L181.25 364.38L181.2 364.45L181.13 364.52L181.06 364.59L170.75 374.07L170.68 374.13L170.61 374.19L170.53 374.24L170.46 374.29L170.38 374.33L170.3 374.37L170.22 374.4L170.14 374.43L170.05 374.46L169.97 374.48L169.88 374.49L169.79 374.51L169.71 374.51L169.62 374.52L169.53 374.52L169.43 374.52L169.34 374.51L169.24 374.5L169.15 374.49L169.05 374.47L168.95 374.45L168.85 374.43L168.75 374.41L168.65 374.38L168.55 374.35L168.44 374.32L168.34 374.28L168.23 374.25L168.13 374.21L168.02 374.17L167.91 374.12L167.8 374.08L167.69 374.03L167.58 373.98L167.46 373.94L167.35 373.89L167.23 373.83L167.12 373.78L167 373.73L166.88 373.67L159.82 369.91L159.68 369.98L158.31 370.61L156.91 371.18L155.48 371.71L154.02 372.19L153.36 372.37L151.25 379.62L151.21 379.74L151.17 379.85L151.13 379.97L151.09 380.08L151.05 380.19L151.01 380.29L150.96 380.4L150.92 380.51L150.88 380.61L150.83 380.71L150.79 380.81L150.74 380.91L150.7 381L150.65 381.09L150.6 381.18L150.55 381.27L150.5 381.36L150.45 381.44L150.39 381.52L150.34 381.6L150.28 381.67L150.22 381.74L150.16 381.81L150.1 381.88L150.04 381.94L149.97 382L149.91 382.05L149.84 382.1L149.77 382.15L149.69 382.2L149.62 382.24L149.54 382.27L149.46 382.31L149.38 382.34L149.29 382.36L149.2 382.38L149.11 382.4L149.02 382.41L148.92 382.41L148.82 382.42L134.24 382.42L134.14 382.41L134.04 382.41L133.95 382.4L133.86 382.38L133.77 382.36L133.68 382.34L133.59 382.31L133.51 382.27L133.43 382.24L133.35 382.2L133.27 382.15L133.2 382.1L133.12 382.05L133.05 382L132.98 381.94L132.92 381.88L132.85 381.81L132.79 381.74L132.73 381.67L132.67 381.6L132.61 381.52L132.55 381.44L132.5 381.36L132.45 381.27L132.39 381.18L132.35 381.09L132.3 381L132.25 380.91L132.21 380.81L132.16 380.71L132.12 380.61L132.08 380.51L132.04 380.4L132.01 380.29L131.97 380.19L131.93 380.08L131.9 379.97L131.87 379.85L131.84 379.74L131.81 379.62L129.71 372.37L129.05 372.19L127.59 371.71L126.16 371.18L124.75 370.61L123.38 369.98L123.21 369.9L116.18 373.64L116.07 373.71L115.96 373.77L115.85 373.83L115.74 373.88L115.63 373.94L115.52 373.99L115.41 374.04L115.31 374.09L115.2 374.14L115.09 374.18L114.98 374.22L114.88 374.26L114.77 374.3L114.67 374.34L114.56 374.37L114.46 374.4L114.36 374.42L114.25 374.45L114.15 374.47L114.05 374.48L113.95 374.5L113.85 374.51L113.76 374.52L113.66 374.52L113.57 374.52L113.47 374.52L113.38 374.51L113.29 374.5L113.2 374.48L113.11 374.46L113.02 374.44L112.94 374.41L112.85 374.38L112.77 374.35L112.69 374.31L112.61 374.26L112.53 374.21L112.46 374.16L112.38 374.1L112.31 374.04L102 364.56L101.93 364.49L101.87 364.43L101.81 364.36L101.76 364.29L101.71 364.21L101.67 364.14L101.63 364.07L101.6 363.99L101.57 363.92L101.55 363.84L101.53 363.76L101.52 363.68L101.51 363.6L101.51 363.51L101.51 363.43L101.51 363.35L101.52 363.26L101.53 363.17L101.54 363.08L101.56 363L101.58 362.9L101.6 362.81L101.63 362.72L101.66 362.63L101.69 362.53L101.72 362.44L101.76 362.34L101.8 362.24L101.84 362.14L101.89 362.05L101.94 361.94L101.98 361.84L102.03 361.74L102.09 361.64L102.14 361.53L102.2 361.43L102.25 361.32L102.31 361.22L102.37 361.11L102.43 361L106.51 354.53L106.44 354.41L105.76 353.15L105.13 351.86L104.56 350.54L104.04 349.2L103.84 348.59L95.95 346.66L95.83 346.62L95.7 346.59L95.58 346.55L95.46 346.51L95.34 346.47L95.22 346.43L95.11 346.39L94.99 346.35L94.88 346.31L94.77 346.27L94.66 346.23L94.56 346.19L94.45 346.15L94.35 346.1L94.26 346.06L94.16 346.01L94.07 345.97L93.98 345.92L93.89 345.87L93.81 345.82L93.72 345.77L93.65 345.71L93.57 345.66L93.5 345.6L93.43 345.54L93.37 345.48L93.31 345.42L93.25 345.36L93.2 345.29L93.15 345.22L93.11 345.16L93.07 345.08L93.03 345.01L93 344.93L92.98 344.86L92.95 344.77L92.94 344.69L92.93 344.61L92.92 344.52L92.92 344.43L92.92 331.02L92.92 330.93L92.93 330.84L92.94 330.75L92.95 330.66L92.98 330.58L93 330.5L93.03 330.42L93.07 330.35L93.11 330.27L93.15 330.2L93.2 330.13L93.25 330.06L93.31 329.99L93.37 329.93L93.43 329.86L93.5 329.8L93.57 329.74L93.65 329.68L93.72 329.63L93.81 329.57L93.89 329.52L93.98 329.47L94.07 329.42L94.16 329.37L94.26 329.32L94.35 329.28L94.45 329.23L94.56 329.19L94.66 329.15L94.77 329.11L94.88 329.07L94.99 329.03L95.11 329L95.22 328.96L95.34 328.93L95.46 328.9L95.58 328.87L95.7 328.84L95.83 328.81L95.95 328.78L103.84 326.85L104.04 326.24L104.56 324.9L105.13 323.59L105.76 322.3L106.44 321.03L106.52 320.91L102.43 314.41L102.37 314.31L102.31 314.2L102.25 314.09L102.2 313.99L102.14 313.88L102.09 313.78L102.03 313.67L101.98 313.57L101.94 313.47L101.89 313.37L101.84 313.27L101.8 313.17L101.76 313.08L101.72 312.98L101.69 312.88L101.66 312.79L101.63 312.7L101.6 312.6L101.58 312.51L101.56 312.42L101.54 312.33L101.53 312.24L101.52 312.16L101.51 312.07L101.51 311.98L101.51 311.9L101.51 311.82L101.52 311.74L101.53 311.66L101.55 311.58L101.57 311.5L101.6 311.42L101.63 311.35L101.67 311.27L101.71 311.2L101.76 311.13L101.81 311.06L101.87 310.99L101.93 310.92L102 310.86L112.31 301.38L112.38 301.31L112.46 301.25L112.53 301.2L112.61 301.15L112.69 301.11L112.77 301.07L112.85 301.03L112.94 301L113.02 300.98L113.11 300.95L113.2 300.93L113.29 300.92L113.38 300.91L113.47 300.9L113.57 300.9L113.66 300.9L113.76 300.9L113.85 300.91L113.95 300.92L114.05 300.93L114.15 300.95L114.25 300.97L114.36 300.99L114.46 301.02L114.56 301.05L114.67 301.08L114.77 301.11L114.88 301.15L114.98 301.19L115.09 301.23L115.2 301.28L115.31 301.32L115.41 301.37L115.52 301.42L115.63 301.48L115.74 301.53L115.85 301.59L115.96 301.65L116.07 301.71L116.18 301.77L123.24 305.53L123.38 305.46L124.75 304.84L126.16 304.26L127.59 303.73L129.05 303.26L129.71 303.07L131.81 295.82L131.84 295.7L131.87 295.59L131.9 295.48L131.93 295.37L131.97 295.26L132.01 295.15L132.04 295.04L132.08 294.94L132.12 294.83L132.16 294.73L132.21 294.63L132.25 294.54L132.3 294.44L132.35 294.35L132.39 294.26L132.45 294.17L132.5 294.08L132.55 294L132.61 293.92L132.67 293.84L132.73 293.77L132.79 293.7L132.85 293.63L132.92 293.57L132.98 293.5L133.05 293.44L133.12 293.39L133.2 293.34L133.27 293.29L133.35 293.25L133.43 293.2L133.51 293.17L133.59 293.14L133.68 293.11L133.77 293.08L133.86 293.06L133.95 293.05L134.04 293.04L134.14 293.03L134.24 293.03L148.82 293.03L148.92 293.03L149.02 293.04ZM139.79 318.23L138.93 318.31L138.08 318.42L137.24 318.56L136.42 318.74L135.61 318.94L134.81 319.16L134.02 319.42L133.25 319.7L132.5 320.01L131.76 320.35L131.03 320.71L130.33 321.1L129.64 321.51L128.97 321.94L128.32 322.4L127.69 322.87L127.08 323.37L126.49 323.89L125.93 324.44L125.38 325L124.86 325.58L124.37 326.17L123.89 326.79L123.45 327.42L123.03 328.07L122.64 328.74L122.27 329.42L121.93 330.11L121.62 330.82L121.35 331.54L121.1 332.28L120.88 333.02L120.69 333.78L120.54 334.55L120.42 335.33L120.33 336.12L120.28 336.92L120.26 337.72L120.28 338.53L120.33 339.33L120.42 340.11L120.54 340.89L120.69 341.66L120.88 342.42L121.1 343.17L121.35 343.9L121.62 344.62L121.93 345.33L122.27 346.03L122.64 346.71L123.03 347.37L123.45 348.02L123.89 348.65L124.37 349.27L124.86 349.87L125.38 350.45L125.93 351.01L126.49 351.55L127.08 352.07L127.69 352.57L128.32 353.05L128.97 353.5L129.64 353.94L130.33 354.35L131.03 354.73L131.76 355.09L132.5 355.43L133.25 355.74L134.02 356.02L134.81 356.28L135.61 356.51L136.42 356.71L137.24 356.88L138.08 357.02L138.93 357.13L139.79 357.21L140.65 357.26L141.53 357.28L142.41 357.26L143.28 357.21L144.13 357.13L144.98 357.02L145.82 356.88L146.64 356.71L147.46 356.51L148.25 356.28L149.04 356.02L149.81 355.74L150.57 355.43L151.31 355.09L152.03 354.73L152.74 354.35L153.42 353.94L154.09 353.5L154.74 353.05L155.37 352.57L155.98 352.07L156.57 351.55L157.14 351.01L157.68 350.45L158.2 349.87L158.7 349.27L159.17 348.65L159.61 348.02L160.03 347.37L160.43 346.71L160.79 346.03L161.13 345.33L161.44 344.62L161.72 343.9L161.97 343.17L162.18 342.42L162.37 341.66L162.52 340.89L162.64 340.11L162.73 339.33L162.78 338.53L162.8 337.72L162.78 336.92L162.73 336.12L162.64 335.33L162.52 334.55L162.37 333.78L162.18 333.02L161.97 332.28L161.72 331.54L161.44 330.82L161.13 330.11L160.79 329.42L160.43 328.74L160.03 328.07L159.61 327.42L159.17 326.79L158.7 326.17L158.2 325.58L157.68 325L157.14 324.44L156.57 323.89L155.98 323.37L155.37 322.87L154.74 322.4L154.09 321.94L153.42 321.51L152.74 321.1L152.03 320.71L151.31 320.35L150.57 320.01L149.81 319.7L149.04 319.42L148.25 319.16L147.46 318.94L146.64 318.74L145.82 318.56L144.98 318.42L144.13 318.31L143.28 318.23L142.41 318.18L141.53 318.17L140.65 318.18L139.79 318.23Z" id="aTDTPUgkE"></path><path d="M231.75 278.53L231.84 278.54L231.93 278.56L232.02 278.58L232.11 278.61L232.19 278.63L232.27 278.67L232.35 278.7L232.42 278.74L232.5 278.79L232.57 278.84L232.64 278.89L232.7 278.94L232.77 279L232.83 279.06L232.89 279.13L232.95 279.2L233.01 279.27L233.07 279.34L233.12 279.42L233.18 279.5L233.23 279.58L233.28 279.67L233.33 279.76L233.38 279.85L233.43 279.94L233.47 280.03L233.52 280.13L233.56 280.23L233.61 280.33L233.65 280.43L233.7 280.54L233.74 280.65L233.78 280.75L233.82 280.86L233.86 280.98L233.9 281.09L233.94 281.2L233.99 281.32L236.09 288.57L236.75 288.76L238.21 289.23L239.64 289.76L241.04 290.33L242.41 290.96L242.53 291.01L249.61 287.24L249.73 287.19L249.85 287.13L249.96 287.08L250.08 287.03L250.19 286.98L250.31 286.93L250.42 286.88L250.53 286.84L250.64 286.79L250.75 286.75L250.86 286.71L250.96 286.67L251.07 286.63L251.17 286.6L251.28 286.56L251.38 286.53L251.48 286.51L251.58 286.48L251.68 286.46L251.78 286.44L251.88 286.43L251.98 286.41L252.07 286.4L252.16 286.4L252.26 286.4L252.35 286.4L252.44 286.4L252.53 286.41L252.61 286.42L252.7 286.44L252.78 286.46L252.87 286.48L252.95 286.51L253.03 286.55L253.11 286.58L253.19 286.63L253.26 286.67L253.34 286.73L253.41 286.78L253.48 286.85L263.8 296.33L263.86 296.4L263.93 296.46L263.99 296.53L264.04 296.6L264.09 296.68L264.13 296.75L264.17 296.83L264.2 296.9L264.23 296.98L264.26 297.06L264.28 297.15L264.29 297.23L264.3 297.31L264.31 297.4L264.32 297.48L264.32 297.57L264.31 297.66L264.3 297.75L264.29 297.84L264.28 297.93L264.26 298.02L264.24 298.12L264.21 298.21L264.18 298.3L264.15 298.4L264.12 298.5L264.08 298.59L264.04 298.69L264 298.79L263.95 298.89L263.9 298.98L263.85 299.08L263.8 299.18L263.74 299.28L263.68 299.38L263.62 299.48L263.56 299.58L263.5 299.68L263.43 299.78L263.37 299.88L259.27 306.39L259.35 306.53L260.03 307.79L260.66 309.08L261.23 310.4L261.75 311.74L261.95 312.35L269.84 314.28L269.96 314.31L270.09 314.34L270.21 314.37L270.33 314.4L270.45 314.43L270.57 314.46L270.69 314.5L270.8 314.53L270.91 314.57L271.02 314.61L271.13 314.65L271.24 314.69L271.34 314.73L271.44 314.77L271.54 314.82L271.63 314.87L271.73 314.91L271.82 314.96L271.9 315.02L271.99 315.07L272.07 315.12L272.15 315.18L272.22 315.24L272.29 315.3L272.36 315.36L272.42 315.42L272.48 315.49L272.54 315.56L272.59 315.63L272.64 315.7L272.68 315.77L272.72 315.84L272.76 315.92L272.79 316L272.82 316.08L272.84 316.16L272.86 316.25L272.87 316.33L272.88 316.42L272.88 316.52L272.88 329.92L272.88 330.02L272.87 330.1L272.86 330.19L272.84 330.27L272.82 330.35L272.79 330.43L272.76 330.51L272.72 330.58L272.68 330.65L272.64 330.72L272.59 330.79L272.54 330.86L272.48 330.92L272.42 330.98L272.36 331.04L272.29 331.1L272.22 331.16L272.15 331.21L272.07 331.26L271.99 331.32L271.9 331.37L271.82 331.42L271.73 331.46L271.63 331.51L271.54 331.56L271.44 331.6L271.34 331.65L271.24 331.69L271.13 331.73L271.02 331.77L270.91 331.81L270.8 331.85L270.69 331.89L270.57 331.93L270.45 331.97L270.33 332.01L270.21 332.05L270.09 332.08L269.96 332.12L269.84 332.16L261.95 334.09L261.75 334.7L261.23 336.04L260.66 337.36L260.03 338.65L259.35 339.91L259.28 340.04L263.37 346.53L263.43 346.63L263.5 346.73L263.56 346.83L263.62 346.93L263.68 347.03L263.74 347.13L263.8 347.23L263.85 347.33L263.9 347.43L263.95 347.53L264 347.63L264.04 347.72L264.08 347.82L264.12 347.92L264.15 348.01L264.18 348.11L264.21 348.2L264.24 348.3L264.26 348.39L264.28 348.48L264.29 348.57L264.3 348.66L264.31 348.75L264.32 348.84L264.32 348.93L264.31 349.02L264.3 349.1L264.29 349.18L264.28 349.27L264.26 349.35L264.23 349.43L264.2 349.51L264.17 349.58L264.13 349.66L264.09 349.74L264.04 349.81L263.99 349.88L263.93 349.95L263.86 350.02L263.8 350.08L253.48 359.56L253.41 359.63L253.34 359.69L253.26 359.74L253.19 359.79L253.11 359.83L253.03 359.87L252.95 359.9L252.87 359.93L252.78 359.95L252.7 359.97L252.61 359.99L252.53 360L252.44 360.01L252.35 360.02L252.26 360.02L252.16 360.01L252.07 360.01L251.98 360L251.88 359.99L251.78 359.97L251.68 359.95L251.58 359.93L251.48 359.91L251.38 359.88L251.28 359.85L251.17 359.82L251.07 359.78L250.96 359.74L250.86 359.71L250.75 359.66L250.64 359.62L250.53 359.58L250.42 359.53L250.31 359.48L250.19 359.43L250.08 359.38L249.96 359.33L249.85 359.28L249.73 359.22L249.61 359.17L242.55 355.41L242.41 355.48L241.04 356.11L239.64 356.68L238.21 357.21L236.75 357.68L236.09 357.87L233.99 365.12L233.94 365.24L233.9 365.35L233.86 365.46L233.82 365.57L233.78 365.68L233.74 365.79L233.7 365.9L233.65 366L233.61 366.11L233.56 366.21L233.52 366.31L233.47 366.4L233.43 366.5L233.38 366.59L233.33 366.68L233.28 366.77L233.23 366.86L233.18 366.94L233.12 367.02L233.07 367.1L233.01 367.17L232.95 367.24L232.89 367.31L232.83 367.38L232.77 367.44L232.7 367.5L232.64 367.55L232.57 367.6L232.5 367.65L232.42 367.7L232.35 367.74L232.27 367.77L232.19 367.81L232.11 367.83L232.02 367.86L231.93 367.88L231.84 367.89L231.75 367.91L231.65 367.91L231.55 367.92L216.97 367.92L216.87 367.91L216.77 367.91L216.68 367.89L216.59 367.88L216.5 367.86L216.41 367.83L216.32 367.81L216.24 367.77L216.16 367.74L216.08 367.7L216 367.65L215.93 367.6L215.85 367.55L215.78 367.5L215.71 367.44L215.65 367.38L215.58 367.31L215.52 367.24L215.46 367.17L215.4 367.1L215.34 367.02L215.28 366.94L215.23 366.86L215.18 366.77L215.13 366.68L215.08 366.59L215.03 366.5L214.98 366.4L214.94 366.31L214.89 366.21L214.85 366.11L214.81 366L214.77 365.9L214.74 365.79L214.7 365.68L214.67 365.57L214.63 365.46L214.6 365.35L214.57 365.24L214.54 365.12L212.44 357.87L211.78 357.68L210.32 357.21L208.89 356.68L207.48 356.11L206.11 355.48L205.94 355.4L198.91 359.14L198.8 359.21L198.69 359.27L198.58 359.32L198.47 359.38L198.36 359.44L198.25 359.49L198.15 359.54L198.04 359.59L197.93 359.64L197.82 359.68L197.72 359.72L197.61 359.76L197.5 359.8L197.4 359.83L197.29 359.87L197.19 359.9L197.09 359.92L196.98 359.94L196.88 359.96L196.78 359.98L196.68 360L196.59 360.01L196.49 360.01L196.39 360.02L196.3 360.02L196.2 360.01L196.11 360.01L196.02 360L195.93 359.98L195.84 359.96L195.75 359.94L195.67 359.91L195.58 359.88L195.5 359.85L195.42 359.81L195.34 359.76L195.26 359.71L195.19 359.66L195.11 359.6L195.04 359.54L184.73 350.06L184.66 349.99L184.6 349.92L184.54 349.85L184.49 349.78L184.44 349.71L184.4 349.64L184.36 349.57L184.33 349.49L184.31 349.41L184.28 349.34L184.27 349.26L184.25 349.18L184.24 349.1L184.24 349.01L184.24 348.93L184.24 348.84L184.25 348.76L184.26 348.67L184.27 348.58L184.29 348.49L184.31 348.4L184.33 348.31L184.36 348.22L184.39 348.13L184.42 348.03L184.46 347.94L184.49 347.84L184.53 347.74L184.58 347.64L184.62 347.54L184.67 347.44L184.72 347.34L184.77 347.24L184.82 347.14L184.87 347.03L184.93 346.93L184.98 346.82L185.04 346.72L185.1 346.61L185.16 346.5L189.24 340.02L189.17 339.91L188.49 338.65L187.87 337.36L187.29 336.04L186.78 334.7L186.57 334.09L178.68 332.16L178.56 332.12L178.44 332.08L178.31 332.05L178.19 332.01L178.07 331.97L177.95 331.93L177.84 331.89L177.72 331.85L177.61 331.81L177.5 331.77L177.39 331.73L177.29 331.69L177.19 331.65L177.08 331.6L176.99 331.56L176.89 331.51L176.8 331.46L176.71 331.42L176.62 331.37L176.54 331.32L176.46 331.26L176.38 331.21L176.3 331.16L176.23 331.1L176.16 331.04L176.1 330.98L176.04 330.92L175.99 330.86L175.93 330.79L175.88 330.72L175.84 330.65L175.8 330.58L175.77 330.51L175.73 330.43L175.71 330.35L175.69 330.27L175.67 330.19L175.66 330.1L175.65 330.02L175.65 329.92L175.65 316.52L175.65 316.42L175.66 316.33L175.67 316.25L175.69 316.16L175.71 316.08L175.73 316L175.77 315.92L175.8 315.84L175.84 315.77L175.88 315.7L175.93 315.63L175.99 315.56L176.04 315.49L176.1 315.42L176.16 315.36L176.23 315.3L176.3 315.24L176.38 315.18L176.46 315.12L176.54 315.07L176.62 315.02L176.71 314.96L176.8 314.91L176.89 314.87L176.99 314.82L177.08 314.77L177.19 314.73L177.29 314.69L177.39 314.65L177.5 314.61L177.61 314.57L177.72 314.53L177.84 314.5L177.95 314.46L178.07 314.43L178.19 314.4L178.31 314.37L178.44 314.34L178.56 314.31L178.68 314.28L186.57 312.35L186.78 311.74L187.29 310.4L187.87 309.08L188.49 307.79L189.17 306.53L189.25 306.4L185.16 299.91L185.1 299.8L185.04 299.7L184.98 299.59L184.93 299.48L184.87 299.38L184.82 299.28L184.77 299.17L184.72 299.07L184.67 298.97L184.62 298.87L184.58 298.77L184.53 298.67L184.49 298.57L184.46 298.48L184.42 298.38L184.39 298.29L184.36 298.19L184.33 298.1L184.31 298.01L184.29 297.92L184.27 297.83L184.26 297.74L184.25 297.65L184.24 297.57L184.24 297.48L184.24 297.4L184.24 297.32L184.25 297.24L184.27 297.16L184.28 297.08L184.31 297L184.33 296.92L184.36 296.85L184.4 296.77L184.44 296.7L184.49 296.63L184.54 296.56L184.6 296.49L184.66 296.42L184.73 296.36L195.04 286.87L195.11 286.81L195.19 286.75L195.26 286.7L195.34 286.65L195.42 286.61L195.5 286.57L195.58 286.53L195.67 286.5L195.75 286.47L195.84 286.45L195.93 286.43L196.02 286.42L196.11 286.41L196.2 286.4L196.3 286.4L196.39 286.4L196.49 286.4L196.59 286.41L196.68 286.42L196.78 286.43L196.88 286.45L196.98 286.47L197.09 286.49L197.19 286.52L197.29 286.55L197.4 286.58L197.5 286.61L197.61 286.65L197.72 286.69L197.82 286.73L197.93 286.78L198.04 286.82L198.15 286.87L198.25 286.92L198.36 286.98L198.47 287.03L198.58 287.09L198.69 287.15L198.8 287.21L198.91 287.27L205.97 291.03L206.11 290.96L207.48 290.33L208.89 289.76L210.32 289.23L211.78 288.76L212.44 288.57L214.54 281.32L214.57 281.2L214.6 281.09L214.63 280.98L214.67 280.86L214.7 280.75L214.74 280.65L214.77 280.54L214.81 280.43L214.85 280.33L214.89 280.23L214.94 280.13L214.98 280.03L215.03 279.94L215.08 279.85L215.13 279.76L215.18 279.67L215.23 279.58L215.28 279.5L215.34 279.42L215.4 279.34L215.46 279.27L215.52 279.2L215.58 279.13L215.65 279.06L215.71 279L215.78 278.94L215.85 278.89L215.93 278.84L216 278.79L216.08 278.74L216.16 278.7L216.24 278.67L216.32 278.63L216.41 278.61L216.5 278.58L216.59 278.56L216.68 278.54L216.77 278.53L216.87 278.53L216.97 278.52L231.55 278.52L231.65 278.53L231.75 278.53ZM222.52 303.73L221.66 303.81L220.81 303.92L219.98 304.06L219.15 304.23L218.34 304.43L217.54 304.66L216.75 304.92L215.98 305.2L215.23 305.51L214.49 305.85L213.76 306.21L213.06 306.59L212.37 307L211.7 307.44L211.05 307.89L210.42 308.37L209.81 308.87L209.22 309.39L208.66 309.93L208.11 310.49L207.59 311.07L207.1 311.67L206.62 312.29L206.18 312.92L205.76 313.57L205.37 314.23L205 314.91L204.66 315.61L204.36 316.32L204.08 317.04L203.83 317.77L203.61 318.52L203.42 319.28L203.27 320.05L203.15 320.83L203.06 321.62L203.01 322.41L202.99 323.22L203.01 324.03L203.06 324.82L203.15 325.61L203.27 326.39L203.42 327.16L203.61 327.92L203.83 328.67L204.08 329.4L204.36 330.12L204.66 330.83L205 331.53L205.37 332.21L205.76 332.87L206.18 333.52L206.62 334.15L207.1 334.77L207.59 335.37L208.11 335.95L208.66 336.51L209.22 337.05L209.81 337.57L210.42 338.07L211.05 338.54L211.7 339L212.37 339.43L213.06 339.84L213.76 340.23L214.49 340.59L215.23 340.93L215.98 341.24L216.75 341.52L217.54 341.78L218.34 342.01L219.15 342.21L219.98 342.38L220.81 342.52L221.66 342.63L222.52 342.71L223.39 342.76L224.26 342.77L225.14 342.76L226.01 342.71L226.86 342.63L227.71 342.52L228.55 342.38L229.37 342.21L230.19 342.01L230.98 341.78L231.77 341.52L232.54 341.24L233.3 340.93L234.04 340.59L234.76 340.23L235.47 339.84L236.15 339.43L236.82 339L237.47 338.54L238.1 338.07L238.71 337.57L239.3 337.05L239.87 336.51L240.41 335.95L240.93 335.37L241.43 334.77L241.9 334.15L242.34 333.52L242.76 332.87L243.16 332.21L243.52 331.53L243.86 330.83L244.17 330.12L244.45 329.4L244.7 328.67L244.91 327.92L245.1 327.16L245.25 326.39L245.37 325.61L245.46 324.82L245.51 324.03L245.53 323.22L245.51 322.41L245.46 321.62L245.37 320.83L245.25 320.05L245.1 319.28L244.91 318.52L244.7 317.77L244.45 317.04L244.17 316.32L243.86 315.61L243.52 314.91L243.16 314.23L242.76 313.57L242.34 312.92L241.9 312.29L241.43 311.67L240.93 311.07L240.41 310.49L239.87 309.93L239.3 309.39L238.71 308.87L238.1 308.37L237.47 307.89L236.82 307.44L236.15 307L235.47 306.59L234.76 306.21L234.04 305.85L233.3 305.51L232.54 305.2L231.77 304.92L230.98 304.66L230.19 304.43L229.37 304.23L228.55 304.06L227.71 303.92L226.86 303.81L226.01 303.73L225.14 303.68L224.26 303.67L223.39 303.68L222.52 303.73Z" id="bEmtANPdu"></path><path d="M168.63 367.92L168.73 367.94L168.82 367.95L168.9 367.97L168.99 368L169.07 368.02L169.15 368.06L169.23 368.09L169.31 368.13L169.38 368.18L169.45 368.23L169.52 368.28L169.59 368.33L169.65 368.39L169.71 368.45L169.78 368.52L169.84 368.59L169.89 368.66L169.95 368.73L170.01 368.81L170.06 368.89L170.11 368.97L170.16 369.06L170.21 369.15L170.26 369.24L170.31 369.33L170.36 369.43L170.4 369.52L170.45 369.62L170.49 369.72L170.53 369.83L170.58 369.93L170.62 370.04L170.66 370.15L170.7 370.26L170.74 370.37L170.79 370.48L170.83 370.59L170.87 370.71L172.97 377.96L173.63 378.15L175.09 378.62L176.52 379.15L177.92 379.73L179.3 380.35L179.41 380.4L186.5 376.63L186.61 376.58L186.73 376.53L186.85 376.47L186.96 376.42L187.08 376.37L187.19 376.32L187.3 376.27L187.41 376.23L187.52 376.18L187.63 376.14L187.74 376.1L187.85 376.06L187.95 376.02L188.06 375.99L188.16 375.96L188.26 375.93L188.37 375.9L188.47 375.87L188.57 375.85L188.66 375.83L188.76 375.82L188.86 375.8L188.95 375.8L189.05 375.79L189.14 375.79L189.23 375.79L189.32 375.79L189.41 375.8L189.49 375.81L189.58 375.83L189.67 375.85L189.75 375.87L189.83 375.9L189.91 375.94L189.99 375.98L190.07 376.02L190.14 376.07L190.22 376.12L190.29 376.18L190.36 376.24L200.68 385.72L200.75 385.79L200.81 385.85L200.87 385.92L200.92 386L200.97 386.07L201.01 386.14L201.05 386.22L201.08 386.3L201.11 386.37L201.14 386.45L201.16 386.54L201.17 386.62L201.19 386.7L201.19 386.79L201.2 386.87L201.2 386.96L201.19 387.05L201.19 387.14L201.17 387.23L201.16 387.32L201.14 387.41L201.12 387.51L201.09 387.6L201.07 387.7L201.03 387.79L201 387.89L200.96 387.98L200.92 388.08L200.88 388.18L200.83 388.28L200.78 388.37L200.73 388.47L200.68 388.57L200.62 388.67L200.57 388.77L200.51 388.87L200.44 388.97L200.38 389.07L200.32 389.17L200.25 389.28L196.15 395.78L196.24 395.92L196.91 397.18L197.54 398.48L198.11 399.79L198.63 401.13L198.84 401.74L206.72 403.67L206.85 403.7L206.97 403.73L207.09 403.76L207.21 403.79L207.33 403.82L207.45 403.85L207.57 403.89L207.68 403.92L207.79 403.96L207.9 404L208.01 404.04L208.12 404.08L208.22 404.12L208.32 404.17L208.42 404.21L208.52 404.26L208.61 404.31L208.7 404.36L208.79 404.41L208.87 404.46L208.95 404.52L209.03 404.57L209.1 404.63L209.17 404.69L209.24 404.75L209.3 404.81L209.36 404.88L209.42 404.95L209.47 405.02L209.52 405.09L209.57 405.16L209.61 405.23L209.64 405.31L209.67 405.39L209.7 405.47L209.72 405.55L209.74 405.64L209.75 405.73L209.76 405.81L209.76 405.91L209.76 419.32L209.76 419.41L209.75 419.49L209.74 419.58L209.72 419.66L209.7 419.74L209.67 419.82L209.64 419.9L209.61 419.97L209.57 420.04L209.52 420.11L209.47 420.18L209.42 420.25L209.36 420.31L209.3 420.37L209.24 420.43L209.17 420.49L209.1 420.55L209.03 420.6L208.95 420.66L208.87 420.71L208.79 420.76L208.7 420.81L208.61 420.86L208.52 420.9L208.42 420.95L208.32 420.99L208.22 421.04L208.12 421.08L208.01 421.12L207.9 421.16L207.79 421.2L207.68 421.24L207.57 421.28L207.45 421.32L207.33 421.36L207.21 421.4L207.09 421.44L206.97 421.47L206.85 421.51L206.72 421.55L198.84 423.48L198.63 424.09L198.11 425.43L197.54 426.75L196.91 428.04L196.24 429.3L196.16 429.43L200.25 435.92L200.32 436.02L200.38 436.12L200.44 436.22L200.51 436.32L200.57 436.42L200.62 436.52L200.68 436.62L200.73 436.72L200.78 436.82L200.83 436.92L200.88 437.02L200.92 437.11L200.96 437.21L201 437.31L201.03 437.4L201.07 437.5L201.09 437.59L201.12 437.69L201.14 437.78L201.16 437.87L201.17 437.96L201.19 438.06L201.19 438.14L201.2 438.23L201.2 438.32L201.19 438.41L201.19 438.49L201.17 438.58L201.16 438.66L201.14 438.74L201.11 438.82L201.08 438.9L201.05 438.98L201.01 439.05L200.97 439.13L200.92 439.2L200.87 439.27L200.81 439.34L200.75 439.41L200.68 439.47L190.36 448.96L190.29 449.02L190.22 449.08L190.14 449.13L190.07 449.18L189.99 449.22L189.91 449.26L189.83 449.29L189.75 449.32L189.67 449.35L189.58 449.37L189.49 449.38L189.41 449.39L189.32 449.4L189.23 449.41L189.14 449.41L189.05 449.41L188.95 449.4L188.86 449.39L188.76 449.38L188.66 449.36L188.57 449.34L188.47 449.32L188.37 449.3L188.26 449.27L188.16 449.24L188.06 449.21L187.95 449.17L187.85 449.14L187.74 449.1L187.63 449.06L187.52 449.01L187.41 448.97L187.3 448.92L187.19 448.87L187.08 448.82L186.96 448.77L186.85 448.72L186.73 448.67L186.61 448.62L186.5 448.56L179.44 444.8L179.3 444.87L177.92 445.5L176.52 446.07L175.09 446.6L173.63 447.07L172.97 447.26L170.87 454.51L170.83 454.63L170.79 454.74L170.74 454.85L170.7 454.97L170.66 455.08L170.62 455.18L170.58 455.29L170.53 455.4L170.49 455.5L170.45 455.6L170.4 455.7L170.36 455.8L170.31 455.89L170.26 455.98L170.21 456.07L170.16 456.16L170.11 456.25L170.06 456.33L170.01 456.41L169.95 456.49L169.89 456.56L169.84 456.63L169.78 456.7L169.71 456.77L169.65 456.83L169.59 456.89L169.52 456.94L169.45 456.99L169.38 457.04L169.31 457.09L169.23 457.13L169.15 457.16L169.07 457.2L168.99 457.23L168.9 457.25L168.82 457.27L168.73 457.29L168.63 457.3L168.54 457.3L168.44 457.31L153.85 457.31L153.75 457.3L153.66 457.3L153.56 457.29L153.47 457.27L153.38 457.25L153.29 457.23L153.2 457.2L153.12 457.16L153.04 457.13L152.96 457.09L152.88 457.04L152.81 456.99L152.74 456.94L152.66 456.89L152.6 456.83L152.53 456.77L152.46 456.7L152.4 456.63L152.34 456.56L152.28 456.49L152.22 456.41L152.16 456.33L152.11 456.25L152.06 456.16L152.01 456.07L151.96 455.98L151.91 455.89L151.86 455.8L151.82 455.7L151.78 455.6L151.73 455.5L151.69 455.4L151.66 455.29L151.62 455.18L151.58 455.08L151.55 454.97L151.51 454.85L151.48 454.74L151.45 454.63L151.42 454.51L149.32 447.26L148.66 447.07L147.2 446.6L145.77 446.07L144.37 445.5L142.99 444.87L142.83 444.79L135.79 448.53L135.68 448.6L135.57 448.66L135.46 448.72L135.35 448.77L135.24 448.83L135.14 448.88L135.03 448.93L134.92 448.98L134.81 449.03L134.7 449.07L134.6 449.11L134.49 449.15L134.38 449.19L134.28 449.23L134.18 449.26L134.07 449.29L133.97 449.31L133.87 449.34L133.77 449.36L133.67 449.37L133.57 449.39L133.47 449.4L133.37 449.4L133.27 449.41L133.18 449.41L133.09 449.4L132.99 449.4L132.9 449.39L132.81 449.37L132.72 449.35L132.64 449.33L132.55 449.3L132.47 449.27L132.38 449.24L132.3 449.2L132.22 449.15L132.15 449.1L132.07 449.05L132 448.99L131.92 448.93L121.61 439.45L121.54 439.38L121.48 439.31L121.42 439.25L121.37 439.18L121.32 439.1L121.28 439.03L121.25 438.96L121.21 438.88L121.19 438.81L121.16 438.73L121.15 438.65L121.13 438.57L121.12 438.49L121.12 438.4L121.12 438.32L121.12 438.24L121.13 438.15L121.14 438.06L121.15 437.97L121.17 437.88L121.19 437.79L121.21 437.7L121.24 437.61L121.27 437.52L121.3 437.42L121.34 437.33L121.37 437.23L121.41 437.13L121.46 437.03L121.5 436.93L121.55 436.83L121.6 436.73L121.65 436.63L121.7 436.53L121.75 436.42L121.81 436.32L121.86 436.21L121.92 436.11L121.98 436L122.04 435.89L126.12 429.41L126.05 429.3L125.37 428.04L124.75 426.75L124.17 425.43L123.66 424.09L123.45 423.48L115.57 421.55L115.44 421.51L115.32 421.47L115.19 421.44L115.07 421.4L114.95 421.36L114.84 421.32L114.72 421.28L114.61 421.24L114.49 421.2L114.38 421.16L114.28 421.12L114.17 421.08L114.07 421.04L113.97 420.99L113.87 420.95L113.77 420.9L113.68 420.86L113.59 420.81L113.5 420.76L113.42 420.71L113.34 420.66L113.26 420.6L113.19 420.55L113.11 420.49L113.05 420.43L112.98 420.37L112.92 420.31L112.87 420.25L112.81 420.18L112.77 420.11L112.72 420.04L112.68 419.97L112.65 419.9L112.62 419.82L112.59 419.74L112.57 419.66L112.55 419.58L112.54 419.49L112.53 419.41L112.53 419.32L112.53 405.91L112.53 405.81L112.54 405.73L112.55 405.64L112.57 405.55L112.59 405.47L112.62 405.39L112.65 405.31L112.68 405.23L112.72 405.16L112.77 405.09L112.81 405.02L112.87 404.95L112.92 404.88L112.98 404.81L113.05 404.75L113.11 404.69L113.19 404.63L113.26 404.57L113.34 404.52L113.42 404.46L113.5 404.41L113.59 404.36L113.68 404.31L113.77 404.26L113.87 404.21L113.97 404.17L114.07 404.12L114.17 404.08L114.28 404.04L114.38 404L114.49 403.96L114.61 403.92L114.72 403.89L114.84 403.85L114.95 403.82L115.07 403.79L115.19 403.76L115.32 403.73L115.44 403.7L115.57 403.67L123.45 401.74L123.66 401.13L124.17 399.79L124.75 398.48L125.37 397.18L126.05 395.92L126.13 395.79L122.04 389.3L121.98 389.19L121.92 389.09L121.86 388.98L121.81 388.88L121.75 388.77L121.7 388.67L121.65 388.56L121.6 388.46L121.55 388.36L121.5 388.26L121.46 388.16L121.41 388.06L121.37 387.96L121.34 387.87L121.3 387.77L121.27 387.68L121.24 387.58L121.21 387.49L121.19 387.4L121.17 387.31L121.15 387.22L121.14 387.13L121.13 387.05L121.12 386.96L121.12 386.87L121.12 386.79L121.12 386.71L121.13 386.63L121.15 386.55L121.16 386.47L121.19 386.39L121.21 386.31L121.25 386.24L121.28 386.16L121.32 386.09L121.37 386.02L121.42 385.95L121.48 385.88L121.54 385.81L121.61 385.75L131.92 376.27L132 376.2L132.07 376.14L132.15 376.09L132.22 376.04L132.3 376L132.38 375.96L132.47 375.92L132.55 375.89L132.64 375.86L132.72 375.84L132.81 375.82L132.9 375.81L132.99 375.8L133.09 375.79L133.18 375.79L133.27 375.79L133.37 375.79L133.47 375.8L133.57 375.81L133.67 375.82L133.77 375.84L133.87 375.86L133.97 375.88L134.07 375.91L134.18 375.94L134.28 375.97L134.38 376L134.49 376.04L134.6 376.08L134.7 376.12L134.81 376.17L134.92 376.21L135.03 376.26L135.14 376.31L135.24 376.37L135.35 376.42L135.46 376.48L135.57 376.54L135.68 376.6L135.79 376.66L142.85 380.42L142.99 380.35L144.37 379.73L145.77 379.15L147.2 378.62L148.66 378.15L149.32 377.96L151.42 370.71L151.45 370.59L151.48 370.48L151.51 370.37L151.55 370.26L151.58 370.15L151.62 370.04L151.66 369.93L151.69 369.83L151.73 369.72L151.78 369.62L151.82 369.52L151.86 369.43L151.91 369.33L151.96 369.24L152.01 369.15L152.06 369.06L152.11 368.97L152.16 368.89L152.22 368.81L152.28 368.73L152.34 368.66L152.4 368.59L152.46 368.52L152.53 368.45L152.6 368.39L152.66 368.33L152.74 368.28L152.81 368.23L152.88 368.18L152.96 368.13L153.04 368.09L153.12 368.06L153.2 368.02L153.29 368L153.38 367.97L153.47 367.95L153.56 367.94L153.66 367.92L153.75 367.92L153.85 367.92L168.44 367.92L168.54 367.92L168.63 367.92ZM159.4 393.12L158.54 393.2L157.69 393.31L156.86 393.45L156.03 393.62L155.22 393.82L154.42 394.05L153.64 394.31L152.86 394.59L152.11 394.9L151.37 395.24L150.65 395.6L149.94 395.99L149.25 396.4L148.58 396.83L147.93 397.29L147.3 397.76L146.69 398.26L146.1 398.78L145.54 399.32L144.99 399.88L144.47 400.46L143.98 401.06L143.51 401.68L143.06 402.31L142.64 402.96L142.25 403.62L141.88 404.3L141.55 405L141.24 405.71L140.96 406.43L140.71 407.16L140.49 407.91L140.31 408.67L140.15 409.44L140.03 410.22L139.94 411.01L139.89 411.8L139.87 412.61L139.89 413.42L139.94 414.21L140.03 415L140.15 415.78L140.31 416.55L140.49 417.31L140.71 418.06L140.96 418.79L141.24 419.51L141.55 420.22L141.88 420.92L142.25 421.6L142.64 422.26L143.06 422.91L143.51 423.54L143.98 424.16L144.47 424.76L144.99 425.34L145.54 425.9L146.1 426.44L146.69 426.96L147.3 427.46L147.93 427.94L148.58 428.39L149.25 428.83L149.94 429.24L150.65 429.62L151.37 429.98L152.11 430.32L152.86 430.63L153.64 430.91L154.42 431.17L155.22 431.4L156.03 431.6L156.86 431.77L157.69 431.91L158.54 432.02L159.4 432.1L160.27 432.15L161.14 432.16L162.02 432.15L162.89 432.1L163.75 432.02L164.59 431.91L165.43 431.77L166.26 431.6L167.07 431.4L167.87 431.17L168.65 430.91L169.42 430.63L170.18 430.32L170.92 429.98L171.64 429.62L172.35 429.24L173.04 428.83L173.71 428.39L174.36 427.94L174.99 427.46L175.6 426.96L176.18 426.44L176.75 425.9L177.29 425.34L177.81 424.76L178.31 424.16L178.78 423.54L179.23 422.91L179.65 422.26L180.04 421.6L180.4 420.92L180.74 420.22L181.05 419.51L181.33 418.79L181.58 418.06L181.8 417.31L181.98 416.55L182.14 415.78L182.26 415L182.34 414.21L182.4 413.42L182.41 412.61L182.4 411.8L182.34 411.01L182.26 410.22L182.14 409.44L181.98 408.67L181.8 407.91L181.58 407.16L181.33 406.43L181.05 405.71L180.74 405L180.4 404.3L180.04 403.62L179.65 402.96L179.23 402.31L178.78 401.68L178.31 401.06L177.81 400.46L177.29 399.88L176.75 399.32L176.18 398.78L175.6 398.26L174.99 397.76L174.36 397.29L173.71 396.83L173.04 396.4L172.35 395.99L171.64 395.6L170.92 395.24L170.18 394.9L169.42 394.59L168.65 394.31L167.87 394.05L167.07 393.82L166.26 393.62L165.43 393.45L164.59 393.31L163.75 393.2L162.89 393.12L162.02 393.07L161.14 393.06L160.27 393.07L159.4 393.12Z" id="a1XTXmEvG2"></path></defs><g><g><g><use xlink:href="#aTDTPUgkE" opacity="1" fill="#1f27c9" fill-opacity="1"></use></g><g><use xlink:href="#bEmtANPdu" opacity="1" fill="#1f27c9" fill-opacity="1"></use></g><g><use xlink:href="#a1XTXmEvG2" opacity="1" fill="#1f27c9" fill-opacity="1"></use></g></g></g></svg>