<?xml version="1.0" encoding="UTF-8" standalone="no"?>
<!DOCTYPE svg PUBLIC "-//W3C//DTD SVG 1.1//EN" "http://www.w3.org/Graphics/SVG/1.1/DTD/svg11.dtd">
<svg version="1.1" xmlns="http://www.w3.org/2000/svg" xmlns:xlink="http://www.w3.org/1999/xlink" preserveAspectRatio="xMidYMid meet" viewBox="139.76937058551735 304.00367111820253 101.93726793778666 153.68426907638928" width="101.94" height="153.68"><defs><path d="M227.4 343.21C227.4 364.85 210.97 382.42 190.74 382.42C170.5 382.42 154.08 364.85 154.08 343.21C154.08 321.57 170.5 304 190.74 304C210.97 304 227.4 321.57 227.4 343.21Z" id="j2MiYxBShe"></path><path d="M139.77 379.27L241.71 379.27L241.71 457.69L139.77 457.69L139.77 379.27Z" id="a5x73w3No5"></path><path d="M210.85 336.94C210.85 339.36 208.23 341.32 205.01 341.32C201.78 341.32 199.16 339.36 199.16 336.94C199.16 334.52 201.78 332.56 205.01 332.56C208.23 332.56 210.85 334.52 210.85 336.94Z" id="d4Kph5PLfj"></path><path d="M184.63 336.94C184.63 339.36 182.01 341.32 178.79 341.32C175.56 341.32 172.95 339.36 172.95 336.94C172.95 334.52 175.56 332.56 178.79 332.56C182.01 332.56 184.63 334.52 184.63 336.94Z" id="b436wSfPxX"></path><path d="M180.51 357.39L203.22 357.39L203.22 361.18L180.51 361.18L180.51 357.39Z" id="h6TvVAZbT"></path></defs><g><g><g><use xlink:href="#j2MiYxBShe" opacity="1" fill="#1f30c9" fill-opacity="1"></use></g><g><use xlink:href="#a5x73w3No5" opacity="1" fill="#1f30c9" fill-opacity="1"></use></g><g><use xlink:href="#d4Kph5PLfj" opacity="1" fill="#fafafa" fill-opacity="1"></use></g><g><use xlink:href="#b436wSfPxX" opacity="1" fill="#fafafa" fill-opacity="1"></use></g><g><use xlink:href="#h6TvVAZbT" opacity="1" fill="#f4f4f8" fill-opacity="1"></use></g></g></g></svg>